<mxfile host="app.diagrams.net" agent="Mozilla/5.0 (Macintosh; Intel Mac OS X 10_15_7) AppleWebKit/537.36 (KHTML, like Gecko) Chrome/135.0.0.0 Safari/537.36" version="26.1.1">
  <diagram name="ページ1" id="HyIJ6LFIsRr-78Lhk1zg">
    <mxGraphModel dx="923" dy="619" grid="1" gridSize="10" guides="1" tooltips="1" connect="1" arrows="1" fold="1" page="1" pageScale="1" pageWidth="827" pageHeight="1169" math="0" shadow="0">
      <root>
        <mxCell id="0" />
        <mxCell id="1" parent="0" />
        <mxCell id="LDO77NBJlLRSbmppM1Rd-1" value="ユーザー" style="shape=umlActor;verticalLabelPosition=bottom;verticalAlign=top;html=1;outlineConnect=0;" vertex="1" parent="1">
          <mxGeometry x="50" y="270" width="30" height="60" as="geometry" />
        </mxCell>
        <mxCell id="LDO77NBJlLRSbmppM1Rd-2" value="フロントエンド" style="rounded=0;whiteSpace=wrap;html=1;fillColor=#dae8fc;strokeColor=#6c8ebf;" vertex="1" parent="1">
          <mxGeometry x="160" y="270" width="120" height="60" as="geometry" />
        </mxCell>
        <mxCell id="LDO77NBJlLRSbmppM1Rd-3" value="Base" style="ellipse;shape=cloud;whiteSpace=wrap;html=1;fillColor=#d5e8d4;strokeColor=#82b366;" vertex="1" parent="1">
          <mxGeometry x="530" y="256" width="120" height="80" as="geometry" />
        </mxCell>
        <mxCell id="LDO77NBJlLRSbmppM1Rd-4" value="CoinSDK" style="rounded=1;whiteSpace=wrap;html=1;fillColor=#e1d5e7;strokeColor=#9673a6;" vertex="1" parent="1">
          <mxGeometry x="354" y="270" width="120" height="60" as="geometry" />
        </mxCell>
        <mxCell id="LDO77NBJlLRSbmppM1Rd-5" value="LLM" style="shape=cylinder3;whiteSpace=wrap;html=1;boundedLbl=1;backgroundOutline=1;size=15;fillColor=#fff2cc;strokeColor=#d6b656;" vertex="1" parent="1">
          <mxGeometry x="550" y="470" width="80" height="70" as="geometry" />
        </mxCell>
        <mxCell id="LDO77NBJlLRSbmppM1Rd-6" value="API&amp;nbsp;&lt;div&gt;on Cloud Run&lt;/div&gt;" style="shape=cube;whiteSpace=wrap;html=1;boundedLbl=1;backgroundOutline=1;darkOpacity=0.05;darkOpacity2=0.1;" vertex="1" parent="1">
          <mxGeometry x="358" y="470" width="116" height="70" as="geometry" />
        </mxCell>
        <mxCell id="LDO77NBJlLRSbmppM1Rd-7" value="" style="endArrow=classic;html=1;rounded=0;" edge="1" parent="1" source="LDO77NBJlLRSbmppM1Rd-1" target="LDO77NBJlLRSbmppM1Rd-2">
          <mxGeometry width="50" height="50" relative="1" as="geometry">
            <mxPoint x="390" y="350" as="sourcePoint" />
            <mxPoint x="440" y="300" as="targetPoint" />
          </mxGeometry>
        </mxCell>
        <mxCell id="LDO77NBJlLRSbmppM1Rd-8" value="" style="endArrow=classic;html=1;rounded=0;exitX=1;exitY=0.5;exitDx=0;exitDy=0;" edge="1" parent="1" source="LDO77NBJlLRSbmppM1Rd-2" target="LDO77NBJlLRSbmppM1Rd-4">
          <mxGeometry width="50" height="50" relative="1" as="geometry">
            <mxPoint x="90" y="310" as="sourcePoint" />
            <mxPoint x="170" y="310" as="targetPoint" />
          </mxGeometry>
        </mxCell>
        <mxCell id="LDO77NBJlLRSbmppM1Rd-9" value="" style="endArrow=classic;html=1;rounded=0;exitX=1;exitY=0.5;exitDx=0;exitDy=0;entryX=0.16;entryY=0.55;entryDx=0;entryDy=0;entryPerimeter=0;" edge="1" parent="1" source="LDO77NBJlLRSbmppM1Rd-4" target="LDO77NBJlLRSbmppM1Rd-3">
          <mxGeometry width="50" height="50" relative="1" as="geometry">
            <mxPoint x="290" y="310" as="sourcePoint" />
            <mxPoint x="364" y="310" as="targetPoint" />
          </mxGeometry>
        </mxCell>
        <mxCell id="LDO77NBJlLRSbmppM1Rd-10" value="" style="endArrow=classic;html=1;rounded=0;exitX=0;exitY=0;exitDx=116;exitDy=45;entryX=0;entryY=0;entryDx=0;entryDy=45;entryPerimeter=0;exitPerimeter=0;" edge="1" parent="1">
          <mxGeometry width="50" height="50" relative="1" as="geometry">
            <mxPoint x="474" y="508" as="sourcePoint" />
            <mxPoint x="550" y="508" as="targetPoint" />
          </mxGeometry>
        </mxCell>
        <mxCell id="LDO77NBJlLRSbmppM1Rd-11" value="" style="endArrow=classic;html=1;rounded=0;exitX=0.5;exitY=1;exitDx=0;exitDy=0;entryX=0;entryY=0;entryDx=0;entryDy=25;entryPerimeter=0;edgeStyle=orthogonalEdgeStyle;" edge="1" parent="1" source="LDO77NBJlLRSbmppM1Rd-2" target="LDO77NBJlLRSbmppM1Rd-6">
          <mxGeometry width="50" height="50" relative="1" as="geometry">
            <mxPoint x="290" y="310" as="sourcePoint" />
            <mxPoint x="364" y="310" as="targetPoint" />
          </mxGeometry>
        </mxCell>
        <mxCell id="LDO77NBJlLRSbmppM1Rd-12" value="mint coin" style="text;html=1;align=center;verticalAlign=middle;whiteSpace=wrap;rounded=0;" vertex="1" parent="1">
          <mxGeometry x="474" y="240" width="60" height="30" as="geometry" />
        </mxCell>
        <mxCell id="LDO77NBJlLRSbmppM1Rd-13" value="SNS(x, instagram)" style="rounded=1;whiteSpace=wrap;html=1;fillColor=#f8cecc;strokeColor=#b85450;" vertex="1" parent="1">
          <mxGeometry x="354" y="370" width="126" height="60" as="geometry" />
        </mxCell>
        <mxCell id="LDO77NBJlLRSbmppM1Rd-14" value="" style="endArrow=classic;html=1;rounded=0;exitX=0.5;exitY=1;exitDx=0;exitDy=0;entryX=0;entryY=0.5;entryDx=0;entryDy=0;edgeStyle=orthogonalEdgeStyle;" edge="1" parent="1" source="LDO77NBJlLRSbmppM1Rd-2" target="LDO77NBJlLRSbmppM1Rd-13">
          <mxGeometry width="50" height="50" relative="1" as="geometry">
            <mxPoint x="230" y="340" as="sourcePoint" />
            <mxPoint x="368" y="505" as="targetPoint" />
          </mxGeometry>
        </mxCell>
        <mxCell id="LDO77NBJlLRSbmppM1Rd-15" value="アクセス" style="text;html=1;align=center;verticalAlign=middle;whiteSpace=wrap;rounded=0;" vertex="1" parent="1">
          <mxGeometry x="90" y="230" width="60" height="30" as="geometry" />
        </mxCell>
        <mxCell id="LDO77NBJlLRSbmppM1Rd-16" value="Coin SDKの機能を呼び出し" style="text;html=1;align=center;verticalAlign=middle;whiteSpace=wrap;rounded=0;" vertex="1" parent="1">
          <mxGeometry x="240" y="230" width="166" height="30" as="geometry" />
        </mxCell>
        <mxCell id="LDO77NBJlLRSbmppM1Rd-17" value="既存SNSへ投稿&lt;br&gt;APIの呼び出し" style="text;html=1;align=center;verticalAlign=middle;whiteSpace=wrap;rounded=0;" vertex="1" parent="1">
          <mxGeometry x="230" y="360" width="100" height="30" as="geometry" />
        </mxCell>
        <mxCell id="LDO77NBJlLRSbmppM1Rd-18" value="テキスト・画像の自動生成" style="text;html=1;align=center;verticalAlign=middle;whiteSpace=wrap;rounded=0;" vertex="1" parent="1">
          <mxGeometry x="220" y="440" width="160" height="30" as="geometry" />
        </mxCell>
      </root>
    </mxGraphModel>
  </diagram>
</mxfile>
